<svg xmlns="http://www.w3.org/2000/svg" viewBox="130 90 540 420" width="800" height="600">
  <defs>
    <filter id="glow2b" x="-50%" y="-50%" width="200%" height="200%">
      <feGaussianBlur stdDeviation="3" result="coloredBlur"/>
      <feMerge>
        <feMergeNode in="coloredBlur"/>
        <feMergeNode in="SourceGraphic"/>
      </feMerge>
    </filter>
    <circle id="particleGreenb" r="6" fill="#20c997" filter="url(#glow2b)"/>
    
    <g id="icon-data">
        <ellipse cx="0" cy="-8" rx="12" ry="4" fill="#2c3e50"/>
        <path d="M-12,-8 v8 a12,4 0 0 0 24,0 v-8" fill="#2c3e50"/>
        <path d="M-12,2 v8 a12,4 0 0 0 24,0 v-8" fill="#2c3e50"/>
        <ellipse cx="0" cy="0" rx="12" ry="4" fill="#8492a6"/>
        <ellipse cx="0" cy="10" rx="12" ry="4" fill="#8492a6"/>
    </g>
    <g id="icon-code">
        <path d="M-8,-8 L-14,0 L-8,8 M8,-8 L14,0 L8,8 M-4,10 L4,-10" stroke="#2c3e50" stroke-width="3" fill="none" stroke-linecap="round" stroke-linejoin="round"/>
    </g>
    <g id="icon-open">
       <path d="M-8,0 v8 a8,8 0 0 0 16,0 v-8" fill="#2c3e50"/>
       <path d="M-4,0 v-4 a6,6 0 0 1 12,0" stroke="#2c3e50" stroke-width="3" fill="none" stroke-linecap="round"/>
       <circle cx="0" cy="6" r="2" fill="#fff"/>
    </g>
     <g id="icon-tools">
        <g transform="rotate(20)">
            <path d="M-14,-2 L-6,-2 L8,-6 L12,-2 L8,2 L-6,2 Z" fill="#2c3e50"/> 
            <circle cx="-14" cy="0" r="4" fill="#2c3e50"/>
        </g>
        <path d="M0,0 m-8,0 a8,8 0 1,0 16,0 a8,8 0 1,0 -16,0 M-11,0 h3 M11,0 h-3 M0,-11 v3 M0,11 v-3 M-7.7,-7.7 l2.1,2.1 M7.7,7.7 l-2.1,-2.1 M-7.7,7.7 l2.1,-2.1 M7.7,-7.7 l-2.1,2.1" stroke="#8492a6" stroke-width="3" fill="none" opacity="0.7"/>
    </g>
  </defs>

  <g stroke="#e0e6ed" stroke-width="2" fill="none">
    <path id="pPath1b" d="M400,300 L200,150"/>
    <path id="pPath2b" d="M400,300 L600,150"/>
    <path id="pPath3b" d="M400,300 L200,450"/>
    <path id="pPath4b" d="M400,300 L600,450"/>
    <path id="outerRingb" d="M200,150 L600,150 L600,450 L200,450 Z" opacity="0.4"/>
  </g>

  <circle cx="400" cy="300" r="35" fill="#2c3e50" stroke="#20c997" stroke-width="3"/>
  <text x="400" y="307" fill="#fff" font-family="Arial" font-weight="bold" font-size="16" text-anchor="middle">LPU</text>

  <g transform="translate(200, 150)">
      <circle r="28" fill="#fff" stroke="#2c3e50" stroke-width="2"/>
      <use href="#icon-data"/>
  </g>
  <g transform="translate(600, 150)">
      <circle r="28" fill="#fff" stroke="#2c3e50" stroke-width="2"/>
      <use href="#icon-code"/>
  </g>
  <g transform="translate(200, 450)">
      <circle r="28" fill="#fff" stroke="#2c3e50" stroke-width="2"/>
       <use href="#icon-open" transform="translate(0,2)"/>
  </g>
  <g transform="translate(600, 450)">
      <circle r="28" fill="#fff" stroke="#2c3e50" stroke-width="2"/>
      <use href="#icon-tools"/>
  </g>

  <use href="#particleGreenb"><animateMotion dur="2.5s" repeatCount="indefinite"><mpath href="#pPath1b"/></animateMotion></use>
  <use href="#particleGreenb"><animateMotion dur="2.5s" begin="0.6s" repeatCount="indefinite"><mpath href="#pPath2b"/></animateMotion></use>
  <use href="#particleGreenb"><animateMotion dur="2.5s" begin="1.2s" repeatCount="indefinite"><mpath href="#pPath3b"/></animateMotion></use>
  <use href="#particleGreenb"><animateMotion dur="2.5s" begin="1.8s" repeatCount="indefinite"><mpath href="#pPath4b"/></animateMotion></use>
  <use href="#particleGreenb" r="4" opacity="0.8">
    <animateMotion dur="10s" repeatCount="indefinite" rotate="auto">
      <mpath href="#outerRingb"/>
    </animateMotion>
  </use>
</svg>